# xmcd
#
# Track frame offsets: 
#        150
#        15922
#        37830
#        54126
#        65859
#        80729
#        109687
#        121795
#        166153
#        192638
#        219671
#        231467
#        245283
#        251438
#        272456
#        280645
#        305117
#        318853
#        338233
#
# Disc length: 4578 seconds
#
# Revision: 2
# Processed by: cddbd v1.5.1PL0 Copyright (c) Steve Scherf et al.
# Submitted via: ExactAudioCopy v0.95b1
#
DISCID=0411e013
DTITLE=Clark Hutchinson - Blues and  Gestalt (Two Originals)
DYEAR=2005
DGENRE=Progressive Rock
TTITLE0=Bad Loser
TTITLE1=Crow Jane
TTITLE2=Guess I have to set you free
TTITLE3=CH Boogie
TTITLE4=Maybe in the morning
TTITLE5=Someone's been at my woman
TTITLE6=Just wanna
TTITLE7=The summer seems longer
TTITLE8=Man's best friend
TTITLE9=Love is the light
TTITLE10=The light burns on
TTITLE11=Come up here
TTITLE12=Disorientated, Part One
TTITLE13=Boat In The Morning Mist
TTITLE14=Oriented
TTITLE15=First Reminder
TTITLE16=Mix Elxer
TTITLE17=Poison
TTITLE18=Disorientated, Part Two
EXTD=
EXTT0=
EXTT1=
EXTT2=
EXTT3=
EXTT4=
EXTT5=
EXTT6=
EXTT7=
EXTT8=
EXTT9=
EXTT10=
EXTT11=
EXTT12=
EXTT13=
EXTT14=
EXTT15=
EXTT16=
EXTT17=
EXTT18=
PLAYORDER=
